Coordinates
version=1
nRows=10
nColumns=63
inDegrees=yes

Units are S.I. units (second, meters, Newtons, ...)
If the header above contains a line with 'inDegrees', this indicates whether rotational values are in degrees (yes) or radians (no).

endheader
time	pelvis_tilt	pelvis_list	pelvis_rotation	pelvis_tx	pelvis_ty	pelvis_tz	hip_flexion_r	hip_adduction_r	hip_rotation_r	knee_angle_r	knee_angle_r_beta	ankle_angle_r	subtalar_angle_r	mtp_angle_r	hip_flexion_l	hip_adduction_l	hip_rotation_l	knee_angle_l	knee_angle_l_beta	ankle_angle_l	subtalar_angle_l	mtp_angle_l	L5_S1_Flex_Ext	L5_S1_Lat_Bending	L5_S1_axial_rotation	L4_L5_Flex_Ext	L4_L5_Lat_Bending	L4_L5_axial_rotation	L3_L4_Flex_Ext	L3_L4_Lat_Bending	L3_L4_axial_rotation	L2_L3_Flex_Ext	L2_L3_Lat_Bending	L2_L3_axial_rotation	L1_L2_Flex_Ext	L1_L2_Lat_Bending	L1_L2_axial_rotation	L1_T12_Flex_Ext	L1_T12_Lat_Bending	L1_T12_axial_rotation	Abs_r3	Abs_r2	Abs_r1	Abs_t1	Abs_t2	neck_flexion	neck_bending	neck_rotation	arm_flex_r	arm_add_r	arm_rot_r	elbow_flex_r	pro_sup_r	wrist_flex_r	wrist_dev_r	arm_flex_l	arm_add_l	arm_rot_l	elbow_flex_l	pro_sup_l	wrist_flex_l	wrist_dev_l
      3.02040816	     -3.10594223	     -2.13092081	     82.34917765	      0.31820938	      0.99750448	      0.37980011	     -3.96655706	     -0.56101446	     10.13163481	      3.09174656	      0.05396116	     26.74999119	     -8.10241968	      0.00000000	     -0.92454448	      0.38238289	      2.13031751	      7.09674997	      0.12386165	     30.01361434	     -6.64051129	      0.00000000	      0.04310422	     -0.15253002	     -0.78725841	      0.08004886	     -0.20286493	     -0.83646206	      0.07081593	     -0.37086150	     -0.83646206	      0.04926382	     -0.37086150	     -0.68885110	      0.04002658	     -0.31103922	     -0.63964745	      0.02462975	     -0.23626901	     -0.59044380	      0.30788917	     -1.72545013	     -4.37849507	      0.00000000	      0.00000000	     15.70082936	      3.03357402	     -2.49466557	    -66.51031130	    -98.74952663	    -23.61463531	     14.14565401	     12.54233445	     -3.35972524	     17.04093888	      6.25283645	   -100.28802494	    168.68945496	     20.11392000	      8.72123983	     -9.91443224	     -2.38353713
      3.04081633	     -3.03134710	     -1.91918348	     82.29659393	      0.31802659	      0.99770391	      0.38024754	     -4.17026666	     -0.56258188	      8.96086242	      3.09576280	      0.05403125	     27.11006410	     -6.42436642	      0.00000000	     -1.16781390	      0.32334795	      1.57341338	      7.03394921	      0.12276557	     30.28446444	     -5.90681369	      0.00000000	      0.01376830	     -0.13776754	     -0.79704042	      0.02556911	     -0.18323083	     -0.84685545	      0.02261994	     -0.33496799	     -0.84685545	      0.01573579	     -0.33496799	     -0.69741037	      0.01278524	     -0.28093556	     -0.64759534	      0.00786721	     -0.21340192	     -0.59778032	      0.09834560	     -1.55845394	     -4.43289973	      0.00000000	      0.00000000	     15.58081853	      2.66414248	     -2.07034519	    -65.70846438	    -98.75505553	    -24.84541110	     14.49776791	     13.26963869	     -3.44145736	     17.71350680	      7.39226024	   -100.57882449	    167.11578808	     20.19006306	      9.41747242	     -9.93581561	     -3.98974856
      3.06122449	     -2.97604664	     -1.93307947	     82.02543588	      0.31802321	      0.99765461	      0.38090097	     -4.06355080	     -0.52530736	      9.40830295	      3.17921748	      0.05548781	     27.05198388	     -6.69137966	      0.00000000	     -1.07980053	      0.31096414	      1.67678100	      7.15984829	      0.12496293	     30.27045060	     -6.52444702	      0.00000000	      0.01097760	     -0.12723001	     -0.72751272	      0.02038650	     -0.16921592	     -0.77298227	      0.01803510	     -0.30934705	     -0.77298227	      0.01254630	     -0.30934705	     -0.63657363	      0.01019380	     -0.25944744	     -0.59110409	      0.00627260	     -0.19707929	     -0.54563454	      0.07841188	     -1.43925136	     -4.04620750	      0.00000000	      0.00000000	     15.53071733	      2.69257828	     -1.96523003	    -66.10847359	    -97.83970375	    -31.65994892	     15.61207318	      7.07160323	     -6.29483078	     18.96022500	      6.59699656	   -100.47110469	    166.05427164	     20.22966870	      8.08288635	     -9.68953705	     -6.02776184
      3.08163265	     -3.29136752	     -1.77856718	     82.07713255	      0.31894891	      0.99809032	      0.38183165	     -4.12964537	     -0.78820572	      9.70297367	      3.20028612	      0.05585553	     26.97826796	     -7.15784081	      0.00000000	     -1.10261694	      0.57096149	      1.38587060	      7.23124937	      0.12620911	     30.09184631	     -6.08429462	      0.00000000	     -0.00382242	     -0.20293020	     -0.78955396	     -0.00709861	     -0.26989716	     -0.83890108	     -0.00627985	     -0.49340448	     -0.83890108	     -0.00436864	     -0.49340448	     -0.69085971	     -0.00354950	     -0.41381526	     -0.64151259	     -0.00218413	     -0.31433888	     -0.59216547	     -0.02730313	     -2.29558698	     -4.39126225	      0.00000000	      0.00000000	     15.11699600	      3.68300956	     -2.49755626	   -102.42921568	    -97.43146320	    -99.72665080	     14.19018665	     14.42044391	    -10.10510963	     21.31476388	      7.55075365	   -101.24374955	    165.02375550	     20.24136879	      8.21527283	     -9.10375989	     -7.37646809
      3.10204082	     -3.17956424	     -1.74418296	     82.00995108	      0.31855606	      0.99809682	      0.38224727	     -4.11774465	     -0.70600703	      9.59320611	      3.26144997	      0.05692304	     27.05452375	     -6.79348737	      0.00000000	     -1.10307802	      0.50545470	      1.79509870	      7.28796001	      0.12719890	     29.80806769	     -6.74002890	      0.00000000	     -0.02361141	     -0.19020208	     -0.73939613	     -0.04384875	     -0.25296877	     -0.78560839	     -0.03879119	     -0.46245734	     -0.78560839	     -0.02698548	     -0.46245734	     -0.64697162	     -0.02192556	     -0.38786008	     -0.60075936	     -0.01349156	     -0.29462302	     -0.55454710	     -0.16865396	     -2.15160397	     -4.11229948	      0.00000000	      0.00000000	     15.12893008	      3.92355344	     -2.41919189	   -103.95490316	    -96.86102128	   -102.47630714	     15.22373363	      8.89457610	    -12.18967384	     21.61542984	      6.49031568	   -101.08081348	    162.82445791	     20.00328866	      7.88391598	     -9.15161691	     -7.85947741
      3.12244898	     -3.22051152	     -1.67282125	     81.97907561	      0.31844750	      0.99815892	      0.38265553	     -4.14656355	     -0.76426406	      9.62460424	      3.28230194	      0.05728698	     27.11339986	     -6.66982383	      0.00000000	     -1.11908310	      0.56535920	      2.00851410	      7.36008757	      0.12845776	     29.34231161	     -7.04053043	      0.00000000	     -0.04470913	     -0.20862116	     -0.58017916	     -0.08302933	     -0.27746614	     -0.61644035	     -0.07345263	     -0.50724148	     -0.61644035	     -0.05109807	     -0.50724148	     -0.50765676	     -0.04151690	     -0.42542027	     -0.47139556	     -0.02554680	     -0.32315417	     -0.43513437	     -0.31935285	     -2.35996427	     -3.22678241	      0.00000000	      0.00000000	     15.16255892	      4.26902950	     -3.36162522	   -107.24457430	    -95.06857352	   -104.15352610	     16.54954991	      8.53594247	    -11.89269542	     21.72354662	     -1.03143790	   -101.21267371	    153.85175511	     20.77205842	      7.93827291	    -10.78758218	     -7.70968403
      3.14285714	     -3.28249003	     -1.59496637	     82.01173262	      0.31846107	      0.99826780	      0.38290036	     -4.19922229	     -0.82899467	      9.60777319	      3.29316926	      0.05747665	     27.16216335	     -6.57792726	      0.00000000	     -1.12631289	      0.62671723	      2.25406920	      7.46120405	      0.13022258	     28.73844197	     -7.28585322	      0.00000000	     -0.06236505	     -0.22958896	     -0.46216607	     -0.11581813	     -0.30535332	     -0.49105144	     -0.10245954	     -0.55822261	     -0.49105144	     -0.07127701	     -0.55822261	     -0.40439531	     -0.05791218	     -0.46817781	     -0.37550993	     -0.03563539	     -0.35563330	     -0.34662455	     -0.44546731	     -2.59715627	     -2.57042900	      0.00000000	      0.00000000	     15.22564075	      4.67647602	     -4.02272009	   -107.26376587	    -93.04901526	    -99.64748084	     18.15434215	     11.28191160	    -10.17651219	     21.03696459	     -7.26424315	   -101.30701902	    147.14113324	     21.39130152	      8.16136396	    -13.41496216	     -6.82521195
      3.16326531	     -3.45111788	     -1.44105375	     82.06694441	      0.31872595	      0.99853788	      0.38295329	     -4.34545992	     -0.99846383	      9.61159210	      3.28537754	      0.05734066	     27.18255977	     -6.56470473	      0.00000000	     -1.17141056	      0.77313508	      2.32519653	      7.63341384	      0.13322820	     28.25386319	     -7.18302845	      0.00000000	     -0.07890100	     -0.25847251	     -0.46598926	     -0.14652705	     -0.34376844	     -0.49511358	     -0.12962646	     -0.62845006	     -0.49511358	     -0.09017596	     -0.62845006	     -0.40774060	     -0.07326747	     -0.52707715	     -0.37861627	     -0.04508403	     -0.40037392	     -0.34949194	     -0.56358198	     -2.92389275	     -2.59169245	      0.00000000	      0.00000000	     15.06766689	      4.78945232	     -3.43195435	   -108.48750633	    -91.68288191	    -98.45729809	     20.05057040	     12.39974043	     -9.09063723	     20.17774682	     -7.28033687	   -101.16305788	    147.05745398	     20.85128780	      8.02245113	    -14.60460590	     -6.07586893
      3.18367347	     -3.81632139	     -1.37831304	     82.08333060	      0.31910697	      0.99862837	      0.38304998	     -4.35948000	     -1.36489229	      9.66939703	      3.27990433	      0.05724513	     27.28740726	     -6.55143704	      0.00000000	     -1.13876427	      1.10720978	      2.39352253	      7.70328029	      0.13444760	     27.93193545	     -7.04423446	      0.00000000	     -0.06709190	     -0.32122920	     -0.47422314	     -0.12459637	     -0.42723484	     -0.50386209	     -0.11022529	     -0.78103668	     -0.50386209	     -0.07667934	     -0.78103668	     -0.41494525	     -0.06230154	     -0.65505059	     -0.38530630	     -0.03833631	     -0.49758404	     -0.35566736	     -0.47923075	     -3.63380899	     -2.63748685	      0.00000000	      0.00000000	     15.15679804	      5.58571594	     -3.87224431	   -111.12826639	    -90.81369194	    -95.59605340	     20.60330187	     19.79143560	     -6.24835174	     14.76907367	     -9.57789987	   -101.17922304	    145.87153698	     21.50869402	      8.46087969	    -18.11063107	     -4.45978607
      3.20408163	     -3.55858858	     -1.25739996	     81.82162481	      0.31810685	      0.99857597	      0.38309851	     -4.49010213	     -1.21897926	      9.90865237	      3.25838735	      0.05686959	     27.30121493	     -6.42064022	      0.00000000	     -1.30323081	      0.91173117	      2.21494396	      7.73333968	      0.13497224	     28.24517433	     -6.80789610	      0.00000000	     -0.07041543	     -0.25678851	     -0.34205316	     -0.13076850	     -0.34152871	     -0.36343148	     -0.11568551	     -0.62435558	     -0.36343148	     -0.08047780	     -0.62435558	     -0.29929652	     -0.06538777	     -0.52364312	     -0.27791819	     -0.04023538	     -0.39776540	     -0.25653987	     -0.50297039	     -2.90484295	     -1.90239707	      0.00000000	      0.00000000	     15.02255963	      4.69061677	     -2.98602189	   -110.06315043	    -88.74619116	    -97.21903705	     22.31834184	     34.08722247	     -4.45712297	     14.07770969	    -17.76415336	   -101.01976985	    136.97381187	     22.97471690	      8.91123407	    -19.19527760	     -3.32052155
